# xmcd CD database file
#
# Track frame offsets:
#	150
#	13437
#	26412
#	40005
#	51545
#	61856
#	71780
#	86544
#	101518
#	114305
#	127829
#	139792
#	157108
#	171897
#	184786
#	195483
#	207058
#	219090
#	230823
#	240794
#	254142
#	269374
#	285461
#	297160
#	309005
#
# Disc length: 4343 seconds
#
# Revision: 0
# Processed by: cddbd v1.5.2PL0 Copyright (c) Steve Scherf et al.
# Submitted via: CDex 1.84
#
DISCID=6310f519
DTITLE=Various Artist - 101 Country Classics - CD 2
DYEAR=2011
DGENRE=Country
TTITLE0=Tammy Wynette - D-I-V-O-R-C-E
TTITLE1=Willie Nelson - Crazy
TTITLE2=Gene Pitney - The Man Who Shot Liberty Valance
TTITLE3=Glen Campbell And Bobbie Gentry - All I Have To Do Is Dream
TTITLE4=Tennessee Ernie Ford - King Of The Road
TTITLE5=Anne Murray - Snowbird
TTITLE6=B.J. Thomas - I'm So Lonesome I Could Cry
TTITLE7=Sue Thompson - Sad Movies (Make Me Cry)
TTITLE8=Johnny Tillotson - It Keeps Right On A-Hurtin'
TTITLE9=Slim Whitham - I'll Take You Home Again, Kathleen
TTITLE10=Patsy Cline - Walkin' After Midnight
TTITLE11=Ray Price - For The Good Times
TTITLE12=Jean Shephard - Sing Me An Old Fashioned Song
TTITLE13=Faron Young - Your Cheatin' Heart
TTITLE14=George Jones - Take These Chains From My Heart
TTITLE15=Jody Miller - He Walks Like A Man
TTITLE16=Eddy Arnold - Make The World Go Away
TTITLE17=Dolly Parton And Porter Wagoner - The Last Thing On My Mind
TTITLE18=Ned Miller - From a Jack To a King
TTITLE19=Ray Stevens - Misty
TTITLE20=Jessi Colter - I'm Not Lisa
TTITLE21=Joe South - Games People Play
TTITLE22=Sammi Smith - Help Me Make It Through The Night
TTITLE23=Stone Poneys, The - Different Drum
TTITLE24=Ronnie Milsap - Smokey Mountain Rain
EXTD=YEAR: 2011
EXTT0=
EXTT1=
EXTT2=
EXTT3=
EXTT4=
EXTT5=
EXTT6=
EXTT7=
EXTT8=
EXTT9=
EXTT10=
EXTT11=
EXTT12=
EXTT13=
EXTT14=
EXTT15=
EXTT16=
EXTT17=
EXTT18=
EXTT19=
EXTT20=
EXTT21=
EXTT22=
EXTT23=
EXTT24=
PLAYORDER=
